<svg xmlns="http://www.w3.org/2000/svg" xmlns:xlink="http://www.w3.org/1999/xlink" width="500" zoomAndPan="magnify" viewBox="0 0 375 374.999991" height="500" preserveAspectRatio="xMidYMid meet" version="1.0"><defs><clipPath id="124a7095e8"><path d="M 93.460938 161.898438 L 148.230469 161.898438 L 148.230469 337.542969 L 93.460938 337.542969 Z M 93.460938 161.898438 " clip-rule="nonzero"/></clipPath><clipPath id="2bbed5a63b"><path d="M 98.363281 161.898438 L 143.324219 161.898438 C 144.625 161.898438 145.871094 162.414062 146.792969 163.332031 C 147.710938 164.253906 148.230469 165.5 148.230469 166.800781 L 148.230469 332.597656 C 148.230469 333.894531 147.710938 335.144531 146.792969 336.0625 C 145.871094 336.984375 144.625 337.5 143.324219 337.5 L 98.363281 337.5 C 97.0625 337.5 95.816406 336.984375 94.898438 336.0625 C 93.976562 335.144531 93.460938 333.894531 93.460938 332.597656 L 93.460938 166.800781 C 93.460938 165.5 93.976562 164.253906 94.898438 163.332031 C 95.816406 162.414062 97.0625 161.898438 98.363281 161.898438 Z M 98.363281 161.898438 " clip-rule="nonzero"/></clipPath><clipPath id="93aa850ebe"><path d="M 93.464844 161.886719 L 271.675781 161.886719 L 271.675781 215.878906 L 93.464844 215.878906 Z M 93.464844 161.886719 " clip-rule="nonzero"/></clipPath><clipPath id="0b50b796ee"><path d="M 93.464844 210.972656 L 93.464844 166.792969 C 93.464844 165.492188 93.980469 164.242188 94.898438 163.324219 C 95.820312 162.40625 97.066406 161.886719 98.367188 161.886719 L 266.695312 161.886719 C 267.996094 161.886719 269.242188 162.40625 270.160156 163.324219 C 271.082031 164.242188 271.597656 165.492188 271.597656 166.792969 L 271.597656 210.972656 C 271.597656 212.273438 271.082031 213.523438 270.160156 214.441406 C 269.242188 215.363281 267.996094 215.878906 266.695312 215.878906 L 98.367188 215.878906 C 97.066406 215.878906 95.820312 215.363281 94.898438 214.441406 C 93.980469 213.523438 93.464844 212.273438 93.464844 210.972656 Z M 93.464844 210.972656 " clip-rule="nonzero"/></clipPath><clipPath id="0251dbdf4b"><path d="M 95 48 L 250 48 L 250 214 L 95 214 Z M 95 48 " clip-rule="nonzero"/></clipPath><clipPath id="ed9bc44154"><path d="M 93.460938 83.40625 L 136.441406 46.011719 L 251.839844 178.644531 L 208.859375 216.042969 Z M 93.460938 83.40625 " clip-rule="nonzero"/></clipPath><clipPath id="d826bc4b74"><path d="M 97.160156 80.1875 L 132.742188 49.230469 C 133.722656 48.375 135.003906 47.945312 136.300781 48.035156 C 137.597656 48.125 138.804688 48.730469 139.660156 49.710938 L 248.484375 174.789062 C 249.339844 175.769531 249.765625 177.050781 249.675781 178.347656 C 249.585938 179.648438 248.984375 180.855469 248.003906 181.707031 L 212.421875 212.664062 C 211.441406 213.519531 210.160156 213.949219 208.863281 213.859375 C 207.566406 213.769531 206.359375 213.167969 205.503906 212.183594 L 96.679688 87.105469 C 95.824219 86.125 95.398438 84.84375 95.488281 83.546875 C 95.578125 82.25 96.179688 81.039062 97.160156 80.1875 Z M 97.160156 80.1875 " clip-rule="nonzero"/></clipPath><clipPath id="df1ce203e3"><path d="M 93.464844 37.492188 L 281.585938 37.492188 L 281.585938 91.480469 L 93.464844 91.480469 Z M 93.464844 37.492188 " clip-rule="nonzero"/></clipPath><clipPath id="deb1b77aee"><path d="M 93.464844 86.578125 L 93.464844 42.394531 C 93.464844 41.09375 93.980469 39.847656 94.898438 38.925781 C 95.820312 38.007812 97.066406 37.492188 98.367188 37.492188 L 276.640625 37.492188 C 277.941406 37.492188 279.1875 38.007812 280.105469 38.925781 C 281.027344 39.847656 281.542969 41.09375 281.542969 42.394531 L 281.542969 86.578125 C 281.542969 87.878906 281.027344 89.125 280.105469 90.046875 C 279.1875 90.964844 277.941406 91.480469 276.640625 91.480469 L 98.367188 91.480469 C 97.066406 91.480469 95.820312 90.964844 94.898438 90.046875 C 93.980469 89.125 93.464844 87.878906 93.464844 86.578125 Z M 93.464844 86.578125 " clip-rule="nonzero"/></clipPath></defs><rect x="-37.5" width="450" fill="#ffffff" y="-37.499999" height="449.999989" fill-opacity="1"/><rect x="-37.5" width="450" fill="#191919" y="-37.499999" height="449.999989" fill-opacity="1"/><g clip-path="url(#124a7095e8)"><g clip-path="url(#2bbed5a63b)"><path fill="#ace417" d="M 93.460938 161.898438 L 148.230469 161.898438 L 148.230469 337.542969 L 93.460938 337.542969 Z M 93.460938 161.898438 " fill-opacity="1" fill-rule="nonzero"/></g></g><g clip-path="url(#93aa850ebe)"><g clip-path="url(#0b50b796ee)"><path fill="#ace417" d="M 93.464844 215.878906 L 93.464844 161.886719 L 271.675781 161.886719 L 271.675781 215.878906 Z M 93.464844 215.878906 " fill-opacity="1" fill-rule="nonzero"/></g></g><g clip-path="url(#0251dbdf4b)"><g clip-path="url(#ed9bc44154)"><g clip-path="url(#d826bc4b74)"><path fill="#ace417" d="M 93.460938 83.40625 L 136.441406 46.011719 L 251.691406 178.476562 L 208.710938 215.875 Z M 93.460938 83.40625 " fill-opacity="1" fill-rule="nonzero"/></g></g></g><g clip-path="url(#df1ce203e3)"><g clip-path="url(#deb1b77aee)"><path fill="#ace417" d="M 93.464844 91.480469 L 93.464844 37.492188 L 281.585938 37.492188 L 281.585938 91.480469 Z M 93.464844 91.480469 " fill-opacity="1" fill-rule="nonzero"/></g></g></svg>